<svg width="641" height="514" viewBox="0 0 641 514" fill="none" xmlns="http://www.w3.org/2000/svg">
<g id="undraw_social_thinking_7ule 1" clip-path="url(#clip0)">
<path id="Vector" d="M423.461 291.049H168.947V512.074H423.461V291.049Z" fill="#6F4BF1"/>
<path id="Vector_2" d="M169 514L534 512.052" stroke="#6F4BF1" stroke-width="2" stroke-miterlimit="10"/>
<path id="Vector_3" d="M331.446 71.1185C331.446 71.1185 373.793 72.2698 380.786 74.8143C387.78 77.3588 390.908 95.5539 390.908 95.5539L358.028 105.888L333.437 104.495L314.929 105.803L325.263 78.7378L331.446 71.1185Z" fill="#2F2E41"/>
<path id="Vector_4" d="M333.273 57.2234C333.273 57.2234 336.059 67.9841 329.876 75.6034C323.692 83.2227 356.458 110.373 356.458 110.373L373.743 107.402C373.743 107.402 369.933 74.3381 375.051 65.9655C380.168 57.5929 333.273 57.2234 333.273 57.2234Z" fill="#9F616A"/>
<path id="Vector_5" opacity="0.1" d="M333.273 57.2234C333.273 57.2234 336.059 67.9841 329.876 75.6034C323.692 83.2227 356.458 110.373 356.458 110.373L373.743 107.402C373.743 107.402 369.933 74.3381 375.051 65.9655C380.168 57.5929 333.273 57.2234 333.273 57.2234Z" fill="black"/>
<path id="Vector_6" d="M448.23 371.843L410.092 422.42L436.119 437.616L471.941 379.007L448.23 371.843Z" fill="#9F616A"/>
<path id="Vector_7" d="M421.478 423.273C421.478 423.273 407.433 406.954 408.059 410.593C408.684 414.232 398.066 445.093 407.945 448.078C417.825 451.063 502.546 458.981 503.711 449.414C504.877 439.847 478.437 433.152 478.437 433.152C478.437 433.152 462.73 418.056 459.247 419.591C455.764 421.126 421.478 423.273 421.478 423.273Z" fill="#1A1A21"/>
<path id="Vector_8" d="M439.673 420.145L470.136 472.044L493.136 458.725L462.417 416.236L439.673 420.145Z" fill="#9F616A"/>
<path id="Vector_9" d="M487.762 296.674L478.721 309.467C478.721 309.467 435.622 369.327 440.199 374.16C444.776 378.993 463.838 397.259 473.533 393.72C483.228 390.18 517.67 328.999 517.67 328.999L508.686 293.078L487.762 296.674Z" fill="#434249"/>
<path id="Vector_10" d="M302.1 284.563C302.1 284.563 311.752 302.574 336.216 308.672C360.68 314.77 386.239 327.236 387.148 327.08C388.058 326.924 390.631 325.545 391.257 329.184C391.882 332.823 398.592 339.163 398.592 339.163C398.592 339.163 425.614 430.991 435.935 431.091C446.255 431.19 467.463 423.798 467.904 420.913C468.345 418.027 436.304 324.251 435.991 322.432L432.238 300.597C432.238 300.597 474.613 307.364 478.565 308.558C482.517 309.752 517.67 328.999 517.67 328.999C517.67 328.999 553.506 303.17 519.987 277.086C486.468 251.001 428.855 231.868 428.855 231.868L408.186 226.054L390.173 224.979L387.521 214.808L344.859 217.27L300.337 236.161L302.1 284.563Z" fill="#434249"/>
<path id="Vector_11" d="M358.405 78.6422C376.758 78.6422 391.636 63.764 391.636 45.4107C391.636 27.0574 376.758 12.1792 358.405 12.1792C340.052 12.1792 325.173 27.0574 325.173 45.4107C325.173 63.764 340.052 78.6422 358.405 78.6422Z" fill="#9F616A"/>
<path id="Vector_12" d="M328.34 72.1207L332.337 71.4337C332.337 71.4337 339.556 99.2286 361.888 103.82C361.888 103.82 372.907 90.6195 372.437 88.3922C371.966 86.1649 381.163 74.2813 386.053 80.9338C390.943 87.5864 384.859 204.775 388.968 206.878C393.076 208.982 401.889 211.214 394.796 218.989C387.703 226.765 359.528 237.227 353.288 233.617C347.048 230.006 334.297 199.416 328.781 189.124C323.266 178.832 314.438 143.821 314.438 143.821C314.438 143.821 303.166 105.483 310.103 96.7979C317.04 88.1126 328.34 72.1207 328.34 72.1207Z" fill="#D0CDE1"/>
<path id="Vector_13" d="M360.145 216.391C359.402 224.554 358.13 232.661 356.338 240.659C354.708 247.167 352.811 251.097 350.645 250.929C345.12 250.516 342.608 258.621 341.313 267.964C339.929 277.876 339.929 289.184 339.17 293.181C338.165 298.461 331.735 302.491 318.887 301.307C311.235 300.437 303.725 298.595 296.539 295.826C279.192 289.519 279.705 238.371 282.607 200.417C284.382 177.154 287.05 158.836 287.05 158.836C287.05 158.836 281.781 143.118 280.096 132.346C279.76 130.381 279.592 128.39 279.593 126.396C279.85 116.986 297.03 91.5569 307.411 75.7168C317.804 59.8767 331.981 71.4972 331.981 71.4972L327.047 86.3885C327.047 86.3885 334.693 98.1877 334.749 109.417C334.805 120.647 353.056 128.752 359.609 134.188C363.728 137.604 363.628 183.204 360.145 216.391Z" fill="#2F2E41"/>
<path id="Vector_14" d="M374.575 76.8186C374.575 76.8186 375.772 78.2341 381.256 77.5435C387.832 76.7153 396.874 78.9906 398.975 85.2693C402.827 96.7834 413.687 143.622 413.687 143.622C413.687 143.622 418.208 197.169 420.24 208.996C422.273 220.823 421.264 231.3 423.268 237.512C425.273 243.723 403.481 225.926 395.45 228.243C387.418 230.561 382.258 200.539 383.267 190.062C384.277 179.586 385.129 168.199 382.343 157.439C379.557 146.678 384.497 118.198 384.312 111.674C384.127 105.149 366.603 88.7046 374.575 76.8186Z" fill="#2F2E41"/>
<path id="Vector_15" d="M398.088 243.244C398.088 243.244 433.274 262.44 436.641 289.762C440.009 317.084 389.579 263.307 389.579 263.307L398.088 243.244Z" fill="#9F616A"/>
<path id="Vector_16" d="M418.174 223.869C418.174 223.869 428.955 278.214 445.751 275.327C462.546 272.441 436.369 220.742 436.369 220.742L418.174 223.869Z" fill="#9F616A"/>
<path id="Vector_17" d="M475.694 460.786C475.694 460.786 467.094 470.694 464.961 469.187C462.829 467.68 457.925 488.192 462.346 492.116C466.767 496.039 483.796 502.478 483.981 509.003C484.166 515.528 529.839 514.234 531.473 507.397C533.108 500.559 525.745 484.965 520.57 482.108C515.396 479.251 496.264 452.954 496.264 452.954C496.264 452.954 481.28 455.142 475.694 460.786Z" fill="#1A1A21"/>
<path id="Vector_18" opacity="0.1" d="M392.484 276.481C384.324 270.721 361.54 269.292 341.313 267.964C332.439 267.394 324.055 266.836 317.614 265.932C311.408 265.073 305.826 259.402 300.87 250.952C293.357 238.148 287.285 218.948 282.607 200.417C284.382 177.154 287.05 158.836 287.05 158.836C287.05 158.836 281.781 143.118 280.096 132.346C281.284 130.692 282.815 129.314 284.583 128.305C306.038 119.096 326.522 209.727 329.123 223.949C329.168 224.183 329.201 224.406 329.235 224.596C330.496 231.919 344.126 238.181 356.338 240.659C363.862 242.189 370.861 242.289 374.087 240.302C382.56 235.1 408.614 255.919 410.59 256.511C412.566 257.113 404.205 284.775 392.484 276.481Z" fill="black"/>
<path id="Vector_19" d="M284.587 122.726C284.587 122.726 268.993 130.089 275.845 164.504C282.697 198.918 296.499 257.427 317.609 260.355C338.718 263.283 380.752 262.615 392.479 270.902C404.206 279.19 412.565 251.527 410.589 250.93C408.613 250.333 382.557 229.523 374.085 234.725C365.613 239.928 331.269 230.845 329.236 219.018C327.204 207.191 306.393 113.358 284.587 122.726Z" fill="#2F2E41"/>
<path id="Vector_20" d="M396.956 106.222L414.094 145.989C414.094 145.989 415.819 145.128 417.824 151.34C419.828 157.552 420.766 163.011 424.277 167.091C427.789 171.17 443.411 229.366 443.88 232.096C444.349 234.825 422.303 244.234 417.377 236.651C412.451 229.068 396.956 106.222 396.956 106.222Z" fill="#2F2E41"/>
<path id="Vector_21" d="M339.498 44.9481C340.772 44.6081 340.959 42.9171 341.002 41.5996C341.23 34.5442 345.479 27.3046 352.232 25.2507C354.824 24.54 357.537 24.3907 360.191 24.8127C363.979 25.3173 367.637 26.5376 370.969 28.4085C372.728 29.3974 374.454 30.5885 376.449 30.8905C377.767 31.09 383.472 32.7488 384.784 32.9823C387.669 33.4955 390.35 36.0766 393.118 35.1161C395.766 34.1972 396.352 30.7683 396.416 27.9658C396.562 21.5812 391.716 12.7448 387.446 7.99513C384.207 4.3908 379.329 2.72698 374.56 1.86183C368.99 0.966799 363.345 0.623409 357.708 0.836618C350.077 0.972718 342.234 1.56175 335.353 4.86363C328.472 8.16551 322.692 14.7371 322.362 22.3624C322.293 23.9508 322.457 25.5458 322.323 27.1301C321.998 30.9949 319.945 34.4857 318.983 38.2429C318.294 40.9996 318.191 43.87 318.681 46.669C319.17 49.4679 320.24 52.1333 321.822 54.4932C324.376 58.2515 328.39 61.6506 328.242 66.1921L333.78 60.4552C334.607 59.8237 335.192 58.9276 335.438 57.9165C335.685 56.9055 335.576 55.8405 335.132 54.8995L333.172 47.2544C332.668 45.8896 332.609 44.4004 333.003 42.9997C335.104 37.8076 337.375 45.5151 339.498 44.9481Z" fill="#2F2E41"/>
</g>
<defs>
<clipPath id="clip0">
<rect width="641" height="514" fill="white"/>
</clipPath>
</defs>
</svg>
